<svg width="51" height="51" viewBox="0 0 51 51" fill="none" xmlns="http://www.w3.org/2000/svg">
<path fill-rule="evenodd" clip-rule="evenodd" d="M15.3408 7.09288L4.79395 13.1623L4.79476 25.5408L4.79551 37.9193L15.3348 43.9813C21.1314 47.3153 25.9243 50.0432 25.9857 50.0432C26.0471 50.0432 30.5982 47.4559 36.0992 44.2937L46.101 38.5443L46.1038 29.5607C46.1053 24.6198 46.0965 20.5772 46.0844 20.5772C46.0722 20.5772 45.1229 21.1202 43.9749 21.7838L41.8878 22.9904L41.8694 29.5175L41.851 36.0445L33.9724 40.5753C29.6391 43.0673 26.0564 45.1149 26.0109 45.1255C25.9653 45.1361 22.1291 42.958 17.486 40.2852L9.04393 35.4255V25.5423V15.6592L17.4758 10.8064C22.1133 8.13731 25.9399 5.95359 25.9792 5.95359C26.0475 5.95359 37.3972 12.4857 37.6207 12.6537C37.7146 12.7242 37.4756 12.8791 35.6973 13.9004L33.6667 15.0664L29.8223 12.8512L25.978 10.6361L19.386 14.431L12.794 18.2259V25.5424V32.8587L19.3324 36.6077C22.9286 38.6696 25.9072 40.3652 25.9517 40.3757C25.9961 40.3862 28.7491 38.8546 32.0695 36.9721L38.1065 33.5494V31.028C38.1065 29.6413 38.0855 28.5192 38.0596 28.5347C37.7258 28.7343 26.0095 35.4619 25.9808 35.4703C25.959 35.4768 23.9392 34.3304 21.4925 32.9229L17.044 30.3637V25.5435V20.7232L21.5143 18.1499L25.9846 15.5766L29.8057 17.7671C31.9072 18.9718 33.6619 19.9493 33.7051 19.9393C33.8867 19.897 46.1011 12.5476 46.059 12.506C45.9557 12.4039 26.0329 1.01681 25.9632 1.02C25.9217 1.02188 21.1417 3.75468 15.3408 7.09288Z" fill="url(#paint0_linear_1_176)"/>
<defs>
<linearGradient id="paint0_linear_1_176" x1="4.93543" y1="26.3226" x2="46.0645" y2="26.3226" gradientUnits="userSpaceOnUse">
<stop stop-color="#FE5B50"/>
<stop offset="0.425" stop-color="#DE45A8"/>
<stop offset="1" stop-color="#505EF6"/>
</linearGradient>
</defs>
</svg>
