<svg width="36" height="43" viewBox="0 0 36 43" fill="none" xmlns="http://www.w3.org/2000/svg">
<path fill-rule="evenodd" clip-rule="evenodd" d="M9.1912 5.32674L0 10.6504L0.000706651 21.5081L0.00136007 32.3657L9.18591 37.6829C14.2375 40.6073 18.4143 43 18.4678 43C18.5213 43 22.4873 40.7306 27.2812 37.9569L35.9975 32.9139L35.9999 25.0341C36.0011 20.7003 35.9935 17.1543 35.9829 17.1543C35.9723 17.1543 35.1451 17.6306 34.1447 18.2127L32.3258 19.2711L32.3098 24.9962L32.2937 30.7213L25.4278 34.6954C21.6515 36.8812 18.5294 38.6772 18.4897 38.6865C18.45 38.6958 15.1069 36.7853 11.0606 34.4409L3.70369 30.1783V21.5094V12.8406L11.0517 8.58399C15.0932 6.24284 18.4278 4.32743 18.4621 4.32743C18.5216 4.32743 28.4124 10.057 28.6072 10.2043C28.689 10.2662 28.4807 10.4021 26.931 11.2978L25.1615 12.3206L21.8112 10.3776L18.461 8.43458L12.7164 11.7632L6.97169 15.0919V21.5095V27.9269L12.6697 31.2152C15.8036 33.0238 18.3994 34.5111 18.4381 34.5203C18.4768 34.5295 20.8759 33.186 23.7695 31.5349L29.0306 28.5327V26.3211C29.0306 25.1047 29.0122 24.1205 28.9897 24.1341C28.6988 24.3092 18.4885 30.2102 18.4635 30.2176C18.4445 30.2233 16.6844 29.2177 14.5521 27.9832L10.6754 25.7384V21.5104V17.2824L14.5712 15.0253L18.4668 12.7681L21.7967 14.6895C23.6281 15.7462 25.1573 16.6036 25.1949 16.5948C25.3532 16.5577 35.9975 10.1113 35.9608 10.0748C35.8708 9.98524 18.5089 -0.00279528 18.4481 5.86859e-07C18.412 0.0016468 14.2464 2.39869 9.1912 5.32674Z" fill="white"/>
</svg>
